<svg id="Layer_1" data-name="Layer 1" xmlns="http://www.w3.org/2000/svg" xmlns:xlink="http://www.w3.org/1999/xlink" viewBox="0 0 491.18 438.34"><defs><style>.cls-1{fill:url(#linear-gradient);}.cls-2{fill:url(#linear-gradient-2);}.cls-3{fill:#fff;}</style><linearGradient id="linear-gradient" x1="29.82" y1="227.79" x2="486.11" y2="227.79" gradientUnits="userSpaceOnUse"><stop offset="0" stop-color="#3fbbec"/><stop offset="1" stop-color="#4a4098"/></linearGradient><linearGradient id="linear-gradient-2" x1="296.06" y1="227.01" x2="521" y2="227.01" xlink:href="#linear-gradient"/></defs><title>LOGO</title><path class="cls-1" d="M194.85,150.56q-8.74-11.91-27.6-14.29T127,138.65q-21.45,4.77-41.3,11.12T51.1,162.08q-14.68,6-16.28,6c-1,0-2.38-.66-4-2q-3.17-5.16,3.38-9.53T68.58,141q69.09-27.39,158-45.26l6.75-32.16A6.43,6.43,0,0,1,238.92,62a9,9,0,0,1,5.56,2.38c.79.53,1.59,1.92,2.38,4.17a23.05,23.05,0,0,1,1.19,7.74,8.41,8.41,0,0,1-2.78,6.75q-6.35,5.18-4.36,7.94l1.58.8q.39,0,21.45-3.18,47.25-7.53,218-25a12,12,0,0,1,1.19,1.58q2.78,3.19,3,4.57t-2.58,4.17q-2.79,3.18-18.66,3.18-91.73,0-226.73,24.22-11.52,65.13-27.8,238.24-4.38,50.43-6,52a5.43,5.43,0,0,1-5.16,2,5.07,5.07,0,0,1-4.36-3.17q-2.79-6.76,9.92-157.24Q209.93,170,194.85,150.56Zm-36.93-29.38-5.56,1.59q28.19,1.59,41.1,9.93t20.84,34.14l5.56-32.56c.26-1.32.6-3.23,1-5.75s.8-4.57,1.19-6.16a49.18,49.18,0,0,0,1-5.36c.26-2,.53-3.63.79-5a19.6,19.6,0,0,0,.4-3.77,15.17,15.17,0,0,0-.2-2.78c-.14-.66-.46-1-1-1q-1.59,0-30.78,7.55T157.92,121.18Z" transform="translate(-29.82 -61.95)"/><path class="cls-2" d="M422.37,363.79q-11.52,2-38.52,2.58t-34.15-.59q-24.22-3.57-36.53-15.69t-15.88-35.53q-5.16-31.37,11.31-80.21t44.28-86.56q21.83-28.59,48-45.67t44.87-14.29q14.68,2,19.66,13.1t1.39,25.21a171,171,0,0,1-9.93,28.2,157.13,157.13,0,0,1-13.3,24.22q-6.94,10.13-10.13,11.32-2.78,1.19-6.15-1.2T424,183.12q0-2.76,8.33-13.5a130.67,130.67,0,0,0,20.45-37.72q6.94-20.25,1.79-28.19-4.38-6.75-13.3-7.15t-20.45,5.16a135.94,135.94,0,0,0-24,15.29,183.49,183.49,0,0,0-25,24,221.64,221.64,0,0,0-22.44,30.58,290.92,290.92,0,0,0-35.33,84q-11.54,45.87-3.58,70.48a46.62,46.62,0,0,0,7.94,16.48,35.61,35.61,0,0,0,12.51,10.13,62.85,62.85,0,0,0,15.49,5.16,125.67,125.67,0,0,0,19.26,2Q403.3,361,444.8,349.5t59.76-28.19q9.93-8.74,14.3-4,7.14,6.35-9.53,17.47-12.72,8.73-36.73,16.67A334.8,334.8,0,0,1,422.37,363.79Z" transform="translate(-29.82 -61.95)"/><path class="cls-3" d="M165,434.1a8.52,8.52,0,0,0-6.15-3.18,26,26,0,0,0-9,.53c-3.19.71-6.26,1.53-9.21,2.48s-5.52,1.86-7.7,2.74a24.61,24.61,0,0,1-3.63,1.33,1.58,1.58,0,0,1-.89-.44c-.47-.77-.22-1.48.76-2.13a55.17,55.17,0,0,1,7.66-3.45,206.23,206.23,0,0,1,35.24-10.1l1.5-7.17a1.45,1.45,0,0,1,1.24-.35,2.06,2.06,0,0,1,1.24.53,2,2,0,0,1,.53.93,5.11,5.11,0,0,1,.27,1.73,1.87,1.87,0,0,1-.62,1.5c-1,.77-1.27,1.36-1,1.77l.36.18,4.78-.71q10.53-1.68,48.61-5.58a2.68,2.68,0,0,1,.27.36,2.62,2.62,0,0,1,.66,1c0,.2-.16.51-.58.92s-1.8.71-4.16.71q-20.44,0-50.56,5.4-2.56,14.53-6.19,53.13-1,11.25-1.33,11.6a1.22,1.22,0,0,1-1.15.44,1.13,1.13,0,0,1-1-.71q-.61-1.5,2.22-35.06Q168.32,438.45,165,434.1Zm-8.23-6.55-1.24.36q6.28.34,9.16,2.21t4.65,7.61l1.24-7.26c.06-.29.13-.72.22-1.28s.18-1,.27-1.37a11.28,11.28,0,0,0,.22-1.2c.06-.44.12-.81.18-1.1a5.18,5.18,0,0,0,.08-.85,3.42,3.42,0,0,0,0-.62c0-.14-.1-.22-.22-.22s-2.53.56-6.86,1.69S157.49,427.32,156.73,427.55Z" transform="translate(-29.82 -61.95)"/><path class="cls-3" d="M193.92,419.41q-1.51,2.47-4.25,11.06-1,3.28-2.79,9.74t-3.59,13.11q-1.77,6.65-2.21,9.12-1.61,6.1-1.42,6.11c.12,0,.5-.56,1.15-1.69a53.43,53.43,0,0,1,6-8.19q3.63-4.11,5.49-4.82,4.08-1.77,4.25,4.25c.06.71-.12,3.36-.53,8a5,5,0,0,0,.09,1.95c.35.35,1.47-.25,3.36-1.82s4.08-3.53,6.56-5.89a61.85,61.85,0,0,1,4.6-4.16q.79-.7,1.2-.18c.26.36.19.74-.23,1.16s-1.29,1.35-3,3.18-3.17,3.37-4.38,4.61a33.89,33.89,0,0,1-4.16,3.58,7.15,7.15,0,0,1-3.68,1.73c-1,0-1.66-.71-2-2.13a16.11,16.11,0,0,1-.31-4.69,30.53,30.53,0,0,0,0-4.69c-.12-1.42-.47-2.13-1.06-2.13-.35,0-1.14.52-2.35,1.55a28.21,28.21,0,0,0-3.23,3.24,52.4,52.4,0,0,0-6.46,9.56q-3,5.31-4,3.1-.62-1.77,3.5-19t6.6-25.32A90.79,90.79,0,0,1,191,418.52q1.28-2.56,2.61-1.95C194.59,416.93,194.68,417.87,193.92,419.41Z" transform="translate(-29.82 -61.95)"/><path class="cls-3" d="M216,467.48a9,9,0,0,0,4-1.46,32.89,32.89,0,0,0,4.42-3c1.24-1,2.87-2.35,4.87-4s3.13-2.64,3.37-2.88c.59-.47,1-.53,1.28-.18s.16.74-.31,1.16-.91.94-1.68,1.77c-1.65,1.77-3,3.13-4,4.07s-2.42,2.09-4.16,3.45a15.19,15.19,0,0,1-5.05,2.75,10.27,10.27,0,0,1-4.82.26,3.92,3.92,0,0,1-1.86-1.37,5.6,5.6,0,0,1-1.33-2.26,19.93,19.93,0,0,1,0-7.52q.71-4.69,2.12-6.2c1-1.12,1.89-1.24,2.66-.36a1.28,1.28,0,0,1-.18,2.13l-.17.18a5.12,5.12,0,0,0-1.07,1.81,18.18,18.18,0,0,0-1,3.37,20.52,20.52,0,0,0-.45,3.8,5.45,5.45,0,0,0,.8,3.19A2.89,2.89,0,0,0,216,467.48Zm-.26-27.71c1.29-1.06,2.27-.91,2.92.44a4.53,4.53,0,0,1-.71,4.78,3.73,3.73,0,0,1-.35.45q-2.13,2.38-3.28.35a4.42,4.42,0,0,1,.18-4.51A4.3,4.3,0,0,1,215.7,439.77Z" transform="translate(-29.82 -61.95)"/><path class="cls-3" d="M247,469c-.94,0-1.58-.58-1.9-1.73a10.61,10.61,0,0,1-.27-4c.15-1.51.24-3,.27-4.43a7.84,7.84,0,0,0-.4-3.14,43.27,43.27,0,0,0-12.22,10.8c-1.47,1.95-2.51,2.51-3.1,1.68a2.82,2.82,0,0,1-.18-.44c-.11-.65.53-3.25,1.95-7.79q2.93-9.12,5.05-8.41a1.77,1.77,0,0,1,.8.79,1.37,1.37,0,0,1,.3.84,4.35,4.35,0,0,1-.57,1.2l-3.45,7.79q2.73-2.57,4.34-3.94c1.06-.91,2.28-1.89,3.67-2.92a11,11,0,0,1,3.41-1.9,2.42,2.42,0,0,1,.57-.09,1.09,1.09,0,0,1,.49.13,4,4,0,0,1,.4.22,6.64,6.64,0,0,1,.53.44,3.83,3.83,0,0,1,.58.62l-.09,4.52c0,.24,0,1-.14,2.26s-.16,2.45-.22,3.54a6.69,6.69,0,0,0,0,1.73c.18.17.7,0,1.55-.45a23.57,23.57,0,0,0,3.15-2.17q1.86-1.46,3.58-2.87c1.15-1,2.36-2,3.63-3.06l2.44-2.08c.59-.47,1-.53,1.28-.18s.16.74-.31,1.16q-.18.25-1.5,1.59l-2.13,2.12c-.53.54-1.3,1.26-2.3,2.17s-1.88,1.67-2.61,2.26-1.54,1.2-2.39,1.82a13.85,13.85,0,0,1-2.35,1.41A4.52,4.52,0,0,1,247,469Z" transform="translate(-29.82 -61.95)"/><path class="cls-3" d="M270.68,424.9a25.56,25.56,0,0,0-1.15,3.8c-.41,1.72-.75,3.23-1,4.56s-.62,3.07-1.06,5.23-.7,3.38-.75,3.67q-2.4,12-2.93,13.81c-.88,3.49-1.21,5.26-1,5.32s.77-.74,1.77-2.22,1.71-2.53,2.3-3.36a44.87,44.87,0,0,1,5.32-5.67q3.36-3.09,4.86-2.21c.42.29.62,1,.62,2q0,2.31-2.83,5.58a53.14,53.14,0,0,1-5.58,5.63,20.22,20.22,0,0,0-2.74,2.52c-.06.47.4,1.09,1.37,1.86a8.3,8.3,0,0,0,2.26,1.41,10.09,10.09,0,0,0,2.66.36,11,11,0,0,0,2.61-.31,16.93,16.93,0,0,0,2.52-.84,19.59,19.59,0,0,0,2.48-1.29c.83-.5,1.61-1,2.35-1.54s1.5-1.14,2.3-1.82,1.5-1.3,2.12-1.86,1.32-1.16,2.08-1.81,1.42-1.19,2-1.6,1-.53,1.29-.18.19.74-.22,1.16-.94.92-1.91,1.9l-1.95,2c-.32.32-.93.9-1.81,1.72a21.45,21.45,0,0,1-2.08,1.77l-2,1.47a10.48,10.48,0,0,1-2.3,1.32l-2.35.93a10.86,10.86,0,0,1-2.65.71,21.2,21.2,0,0,1-2.84.18,8.88,8.88,0,0,1-4.69-.93,21.94,21.94,0,0,1-3.9-3.85c-.06.17-.48,1.24-1.28,3.18s-1.55,3.63-2.26,5-1.27,2.16-1.68,2.22a.69.69,0,0,1-.58-.32,1.8,1.8,0,0,1-.26-.88,9.79,9.79,0,0,1,0-1.33c0-.5.09-1.05.18-1.64s.19-1.16.31-1.72.25-1.14.39-1.73.29-1.11.4-1.55.22-.84.31-1.19a3.89,3.89,0,0,0,.14-.71l8.41-39.49a2,2,0,0,0,.17-.67q.09-.57.18-.93t.27-.84a2.29,2.29,0,0,1,.44-.79,1.24,1.24,0,0,1,.53-.4c1.12-.47,1.73-.11,1.82,1.1A6.25,6.25,0,0,1,270.68,424.9Zm4.43,26.2c-.42-.47-1.92.74-4.52,3.63a23.92,23.92,0,0,0-2.39,2.75c-1.06,1.36-1.36,2-.88,2s2.1-1.33,4.56-4S275.4,451.4,275.11,451.1Z" transform="translate(-29.82 -61.95)"/><path class="cls-3" d="M346,481.65a65.19,65.19,0,0,1-8.59.58,54.62,54.62,0,0,1-7.61-.14q-5.4-.79-8.15-3.49c-1.83-1.8-3-4.45-3.54-7.93q-1.15-7,2.52-17.88a70.15,70.15,0,0,1,9.87-19.31,43.43,43.43,0,0,1,10.72-10.18q5.83-3.81,10-3.19a5.14,5.14,0,0,1,4.39,2.93,8.45,8.45,0,0,1,.31,5.62,38.75,38.75,0,0,1-2.22,6.29,35.29,35.29,0,0,1-3,5.4,7.7,7.7,0,0,1-2.26,2.52,1.35,1.35,0,0,1-1.37-.27,1.49,1.49,0,0,1-.76-1.24c0-.41.62-1.41,1.86-3a28.93,28.93,0,0,0,4.56-8.41c1-3,1.17-5.1.4-6.28a3.48,3.48,0,0,0-3-1.6,9.76,9.76,0,0,0-4.56,1.15,30.61,30.61,0,0,0-5.36,3.41,40.7,40.7,0,0,0-5.58,5.36,48.55,48.55,0,0,0-5,6.82,64.86,64.86,0,0,0-7.88,18.72q-2.58,10.23-.8,15.72a10.34,10.34,0,0,0,1.77,3.68,8,8,0,0,0,2.79,2.25,13.73,13.73,0,0,0,3.45,1.15,27.61,27.61,0,0,0,4.3.45A59,59,0,0,0,351,478.46q9.25-2.56,13.33-6.28c1.47-1.3,2.54-1.6,3.19-.89,1.06.95.35,2.24-2.13,3.9a33.19,33.19,0,0,1-8.19,3.72A74.8,74.8,0,0,1,346,481.65Z" transform="translate(-29.82 -61.95)"/><path class="cls-3" d="M384.28,419.41q-1.51,2.47-4.25,11.06-1,3.28-2.79,9.74t-3.59,13.11q-1.77,6.65-2.21,9.12c-1.06,4.07-1.54,6.11-1.42,6.11s.5-.56,1.15-1.69a54.1,54.1,0,0,1,6-8.19q3.65-4.11,5.49-4.82,4.08-1.77,4.26,4.25c.05.71-.12,3.36-.54,8a5,5,0,0,0,.09,1.95c.36.35,1.48-.25,3.37-1.82s4.07-3.53,6.55-5.89,4-3.75,4.6-4.16.93-.53,1.2-.18.19.74-.22,1.16-1.3,1.35-3,3.18-3.18,3.37-4.39,4.61a33.16,33.16,0,0,1-4.16,3.58,7.16,7.16,0,0,1-3.67,1.73c-1,0-1.67-.71-2-2.13a15.77,15.77,0,0,1-.31-4.69,33.3,33.3,0,0,0,0-4.69c-.12-1.42-.48-2.13-1.07-2.13-.35,0-1.13.52-2.34,1.55a28.31,28.31,0,0,0-3.24,3.24,52.91,52.91,0,0,0-6.46,9.56q-3,5.31-4,3.1-.63-1.77,3.49-19t6.6-25.32a90.79,90.79,0,0,1,3.94-11.16q1.29-2.56,2.61-1.95C385,416.93,385.05,417.87,384.28,419.41Z" transform="translate(-29.82 -61.95)"/><path class="cls-3" d="M411.28,466.78c.36.29,1.41-.18,3.15-1.42s5.5-4.31,11.29-9.21c.53-.47.94-.53,1.24-.18s.2.74-.27,1.16c-.12.17-.62.7-1.51,1.59s-1.6,1.59-2.16,2.12-1.33,1.26-2.31,2.17-1.83,1.67-2.56,2.26-1.54,1.2-2.39,1.82a13.85,13.85,0,0,1-2.35,1.41,4.52,4.52,0,0,1-1.86.49,2.25,2.25,0,0,1-2.08-.93,2.85,2.85,0,0,1-.35-2.12c.14-.8.26-1.57.35-2.31a2.54,2.54,0,0,0-.05-1.37c-.17-.23-.82.13-1.94,1.11s-2.35,2.06-3.68,3.27a15.63,15.63,0,0,1-4.07,2.75c-1.39.62-2.44.43-3.14-.58q-1.68-2.21-.09-6.06a19.16,19.16,0,0,1,5.13-7,11.67,11.67,0,0,1,7-3.32,6.36,6.36,0,0,1,5.27,1.77c1.18,1.24,1.36,2.31.53,3.19-.65.77-1.42.71-2.3-.18a8.11,8.11,0,0,1-.71-1.06,2.42,2.42,0,0,0-1.73-1.33,4.92,4.92,0,0,0-2.7.27,14.05,14.05,0,0,0-3.1,1.59,16.91,16.91,0,0,0-3,2.61,13.42,13.42,0,0,0-2.21,3.24c-.23.53-.44,1-.62,1.55a5.2,5.2,0,0,0-.31,1.37,6.84,6.84,0,0,0,0,1.11,1.17,1.17,0,0,0,.31.75.89.89,0,0,0,.62.26q1,0,3.45-2.34c1.66-1.57,3.31-3,5-4.34s2.89-1.79,3.72-1.37c.71.23.92,1.44.62,3.63S411.11,466.54,411.28,466.78Z" transform="translate(-29.82 -61.95)"/><path class="cls-3" d="M456.7,470.23c-1.29,0-2.08-.84-2.34-2.52a16,16,0,0,1,.22-5.63,51.66,51.66,0,0,0,.84-5.8c.15-1.8,0-2.81-.57-3s-1.88.55-4,2.52a63.92,63.92,0,0,0-6.69,7.31,41.4,41.4,0,0,1-2.83,3.54,1.63,1.63,0,0,1-1.33.62c-.41-.06-.64-.38-.66-1s0-2.5.22-5.75c.06-1,.09-1.77.09-2.3s0-1.14-.09-1.82A2.13,2.13,0,0,0,439,455a1.34,1.34,0,0,0-1.24-.23,6.58,6.58,0,0,0-2.57,1.24,22,22,0,0,0-3.1,2.57,28.11,28.11,0,0,0-3.54,4.47q-1.77,2.7-2.79,4c-.68.85-1.31,1.16-1.9.93s-.76-.8-.67-1.86a47.74,47.74,0,0,1,1.28-6.11q2.4-9,4.43-8.94a1.34,1.34,0,0,1,1,.44c.64.65.53,1.68-.36,3.1l-2.3,5.49.8-.8c1-1,1.77-1.76,2.3-2.26s1.28-1.18,2.26-2a12.47,12.47,0,0,1,2.43-1.78,14,14,0,0,1,2.17-.84,2.76,2.76,0,0,1,2.13.14,4.19,4.19,0,0,1,1.63,1.72,4,4,0,0,1,.62,1.69,11,11,0,0,1,.18,1.81v4.83c.65-.83,1.36-1.72,2.13-2.66s1.68-2,2.74-3.1a37,37,0,0,1,3.14-3,26,26,0,0,1,3-2.16,4.61,4.61,0,0,1,2.7-.8,2.17,2.17,0,0,1,1.85,1.24q.89,1.59-.13,8.54c-.68,4.64-.9,7.1-.66,7.4s1.38-.25,3.27-1.82,4.09-3.51,6.6-5.84,4.06-3.74,4.65-4.21.93-.53,1.19-.18.2.74-.22,1.16-1.19,1.24-2.34,2.47-2.26,2.4-3.32,3.46-2.22,2.18-3.46,3.36a22.36,22.36,0,0,1-3.49,2.79A5.56,5.56,0,0,1,456.7,470.23Z" transform="translate(-29.82 -61.95)"/><path class="cls-3" d="M461.75,495.2q-.88,3.1-1.5,4.78a1,1,0,0,1-.8.31,1,1,0,0,1-.71-.4q-.27-.79,1-6.86c.86-4,1.7-7.34,2.52-9.87q.63-1.86,1.86-5.23,1-2.65,3.1-9.29T471,457q1.65-5,2.26-5.49c.89-.59,1.51-.36,1.86.71a2.82,2.82,0,0,1-.62,2.92,12.33,12.33,0,0,0-1.15,2.52c-.59,1.51-1.14,3-1.64,4.43a9.57,9.57,0,0,0-.66,2.26c.06.06.26-.14.62-.58s.79-1,1.33-1.73q1.14-1.5,2.7-3.27a50.5,50.5,0,0,1,3.58-3.68,28.17,28.17,0,0,1,3.9-3.1,13.44,13.44,0,0,1,3.67-1.68,2.63,2.63,0,0,1,2.88.75,4.62,4.62,0,0,1,1.2,2.26,7.92,7.92,0,0,1,.08,2.88,17,17,0,0,1-.75,3.1c-.35,1.06-.72,2-1.1,2.88a16.72,16.72,0,0,1-1.29,2.34c1.6-.65,2.91-1.24,3.94-1.77a31.57,31.57,0,0,0,3.37-2c1.21-.82,2.06-1.44,2.56-1.85s1.64-1.33,3.41-2.75q.89-.7,1.29-.18c.26.36.16.74-.31,1.16a47.72,47.72,0,0,1-7.26,6.19,58.36,58.36,0,0,1-9,4.43,13.83,13.83,0,0,1-8.33,7.08q-3.9,1.34-5.13-.08c-1-1,.23-2.57,3.72-4.7a47.63,47.63,0,0,1,7.79-3.81l2-3.18.89-1.86q2.47-5.49,1.5-7.53a.84.84,0,0,0-1.15-.44c-1,.24-2.56,1.25-4.69,3a44.38,44.38,0,0,0-5.75,5.89A60.32,60.32,0,0,0,468,476.25,124.35,124.35,0,0,0,461.75,495.2Z" transform="translate(-29.82 -61.95)"/></svg>